<?xml version="1.0" encoding="UTF-8"?>
<svg version="1.1" xmlns="http://www.w3.org/2000/svg" width="200" height="160">
<path d="M0 0 C1.09054688 0.49113281 2.18109375 0.98226563 3.3046875 1.48828125 C8.50858322 4.10433181 12.53607441 7.0761912 16.46484375 11.3671875 C18.1151646 13.21248501 18.1151646 13.21248501 20.875 15.1875 C34.46957925 26.26726432 40.26629767 43.28799064 42.38671875 60.05859375 C43.14684186 78.53744855 37.04593253 97.91097066 24.5 111.5625 C22.70273266 113.41851356 20.86323735 115.208109 19 117 C17.98099609 118.03060547 17.98099609 118.03060547 16.94140625 119.08203125 C3.94241093 131.48647793 -16.3559947 136.33120279 -33.8046875 136.15234375 C-38.08901694 135.94807865 -41.89365877 135.19543157 -46 134 C-47.546875 133.58041016 -47.546875 133.58041016 -49.125 133.15234375 C-69.45287548 127.34101824 -84.21085372 113.55733804 -94.49609375 95.25390625 C-102.57806614 77.76745689 -102.28680789 60.05678136 -97 42 C-96.773125 41.20464844 -96.54625 40.40929688 -96.3125 39.58984375 C-90.74869414 22.65500965 -75.56697509 8.88057413 -60.55078125 0.2109375 C-56.98718409 -1.48081613 -53.37868498 -2.4755172 -49.54296875 -3.359375 C-46.98880809 -3.92995161 -46.98880809 -3.92995161 -44.66015625 -5.01464844 C-30.79165416 -10.15169638 -12.97876909 -5.84552916 0 0 Z M-51 16 C-51.68191406 16.27714844 -52.36382812 16.55429687 -53.06640625 16.83984375 C-62.66419404 21.0473588 -70.69689007 29.80431137 -77 38 C-77.91692961 40.75078884 -78.10886083 42.35948913 -78.0625 45.1875 C-78.041875 46.445625 -78.02125 47.70375 -78 49 C-78.99 49 -79.98 49 -81 49 C-82.72007765 54.91276693 -83.21797749 60.44153092 -83.25 66.5625 C-83.25902344 67.27011475 -83.26804687 67.97772949 -83.27734375 68.70678711 C-83.2335129 76.59725307 -81.41225096 82.82872731 -77.5625 89.75 C-76.66724609 91.38195312 -76.66724609 91.38195312 -75.75390625 93.046875 C-74.28442568 95.52110064 -72.88965985 97.8313653 -71 100 C-70.34 100 -69.68 100 -69 100 C-68.79375 100.556875 -68.5875 101.11375 -68.375 101.6875 C-64.77344023 107.74466871 -58.09047586 110.91681518 -52 114 C-50.75863281 114.70576172 -50.75863281 114.70576172 -49.4921875 115.42578125 C-39.05751922 120.70257219 -26.43670557 120.72610651 -15.1796875 118.11328125 C-11.96194999 116.94636681 -9.02451747 115.59930978 -6 114 C-4.96488281 113.48050781 -3.92976563 112.96101563 -2.86328125 112.42578125 C11.5277816 104.67952534 18.77299218 93.69289176 24.203125 78.671875 C25.2467019 73.86323633 25.3296778 69.2809791 25.3125 64.375 C25.32861328 63.446875 25.34472656 62.51875 25.36132812 61.5625 C25.36498222 56.46138477 25.1509225 53.21726523 22 49 C21.71125 47.9275 21.4225 46.855 21.125 45.75 C17.09561049 32.31870163 7.75124549 23.91269445 -4 17 C-10.71859202 13.49853306 -16.38857764 11.26813247 -24 12 C-24.33 12.66 -24.66 13.32 -25 14 C-24.505 15.485 -24.505 15.485 -24 17 C-23.83263439 18.60212785 -23.7057327 20.20868363 -23.60546875 21.81640625 C-23.53650391 22.74517578 -23.46753906 23.67394531 -23.39648438 24.63085938 C-23.25694106 26.5883782 -23.12937027 28.5467866 -23.01367188 30.50585938 C-22.94083984 31.43333984 -22.86800781 32.36082031 -22.79296875 33.31640625 C-22.7364917 34.16662354 -22.68001465 35.01684082 -22.62182617 35.89282227 C-22.1979402 38.16381817 -22.1979402 38.16381817 -20.09179688 39.25756836 C-17.83451425 40.05873508 -15.66998621 40.5748173 -13.3125 41 C-10.08384258 41.6024317 -6.88384535 42.24514353 -3.6875 43 C1.25828649 44.12565391 6.25753417 44.82475045 11.27734375 45.53515625 C14 46 14 46 16 47 C16 47.66 16 48.32 16 49 C12.76240191 49.94707533 9.75316046 50.1773867 6.38671875 50.28125 C5.30326172 50.31863281 4.21980469 50.35601562 3.10351562 50.39453125 C1.97623047 50.42933594 0.84894531 50.46414062 -0.3125 50.5 C-11.94671278 49.94594044 -11.94671278 49.94594044 -22 54 C-22.5244829 56.46620392 -22.5244829 56.46620392 -22.78125 59.33984375 C-22.90113281 60.40267578 -23.02101562 61.46550781 -23.14453125 62.56054688 C-23.26183594 63.67494141 -23.37914062 64.78933594 -23.5 65.9375 C-23.73211249 68.13491657 -23.97137888 70.33159255 -24.21875 72.52734375 C-24.32123047 73.50437256 -24.42371094 74.48140137 -24.52929688 75.48803711 C-25 78 -25 78 -27 81 C-29.625 81.1875 -29.625 81.1875 -32 81 C-32.19335938 79.96101563 -32.38671875 78.92203125 -32.5859375 77.8515625 C-33.1223166 74.9716353 -33.66520448 72.09301164 -34.2109375 69.21484375 C-34.67690892 66.75114377 -35.12040626 64.28890503 -35.5390625 61.81640625 C-35.69117188 60.94886719 -35.84328125 60.08132812 -36 59.1875 C-36.12375 58.43855469 -36.2475 57.68960938 -36.375 56.91796875 C-37.18457699 54.43357936 -37.89703578 53.58040783 -40 52 C-43.22375593 51.41538502 -43.22375593 51.41538502 -46.93359375 51.3046875 C-47.60793961 51.26691193 -48.28228546 51.22913635 -48.97706604 51.19021606 C-51.13008625 51.07189995 -53.28345264 50.97265977 -55.4375 50.875 C-57.58763687 50.76668682 -59.73748825 50.65438948 -61.88722229 50.5383606 C-63.84036824 50.43463827 -65.7940832 50.34180161 -67.74780273 50.24951172 C-70.32668024 50.05165774 -72.539109 49.74717324 -75 49 C-75 48.34 -75 47.68 -75 47 C-65.21656307 44.43116461 -55.41502084 42.20274005 -45.47753906 40.30761719 C-44.25502441 40.07220215 -44.25502441 40.07220215 -43.0078125 39.83203125 C-42.28223145 39.69514893 -41.55665039 39.5582666 -40.80908203 39.41723633 C-38.9136167 39.05462713 -38.9136167 39.05462713 -37 38 C-35.7526858 34.25805739 -35.42164424 30.5252092 -35 26.625 C-34.12091038 18.5758357 -34.12091038 18.5758357 -33.375 15.0234375 C-33.189375 14.02183594 -33.189375 14.02183594 -33 13 C-34.11376143 11.67679287 -34.11376143 11.67679287 -36.9375 11.6875 C-42.07028363 11.76112599 -46.3960161 13.9125697 -51 16 Z " fill="#6D83E8" transform="translate(128,16)"/>
<path d="M0 0 C1.10730469 -0.020625 2.21460938 -0.04125 3.35546875 -0.0625 C9.89705568 -0.09361337 14.79808713 0.49179647 20.75 3.25 C20.75 3.91 20.75 4.57 20.75 5.25 C21.884375 5.518125 23.01875 5.78625 24.1875 6.0625 C25.9509375 6.6503125 25.9509375 6.6503125 27.75 7.25 C28.245 8.735 28.245 8.735 28.75 10.25 C30.4363684 11.01051908 32.12710858 11.76365427 33.84375 12.453125 C39.73334375 14.91516829 42.4322225 17.73060494 44.890625 23.4453125 C45.71710528 25.44004518 45.71710528 25.44004518 47.75 27.25 C47.75 28.57 47.75 29.89 47.75 31.25 C49.235 31.745 49.235 31.745 50.75 32.25 C52.32839205 42.26808809 53.14907524 52.06770791 53.17553711 62.20605469 C53.18768894 64.40925585 53.23733641 66.60986428 53.28710938 68.8125 C53.29655137 70.23175749 53.30379699 71.6510317 53.30859375 73.0703125 C53.32877563 74.96160889 53.32877563 74.96160889 53.34936523 76.89111328 C52.59245997 81.13286589 50.94261042 82.46700981 47.75 85.25 C46.04947429 88.23438339 46.04947429 88.23438339 44.6875 91.375 C42.82454654 95.51374979 41.44005407 97.65698904 37.75 100.25 C37.255 101.735 37.255 101.735 36.75 103.25 C32.08132742 107.82757653 28.23284168 109.48731274 21.75 110.25 C21.32775146 110.90822754 20.90550293 111.56645508 20.47045898 112.24462891 C18.75 114.25 18.75 114.25 15.71899414 114.73583984 C14.50332764 114.72762207 13.28766113 114.7194043 12.03515625 114.7109375 C11.38300644 114.71002106 10.73085663 114.70910461 10.0589447 114.7081604 C8.68123081 114.7021257 7.30352996 114.68638305 5.92602539 114.66162109 C3.82323547 114.62518601 1.72221281 114.62060128 -0.38085938 114.62109375 C-10.65862067 114.54568966 -10.65862067 114.54568966 -15.25 112.25 C-8.32 112.25 -1.39 112.25 5.75 112.25 C5.75 111.59 5.75 110.93 5.75 110.25 C6.54921875 109.97027344 7.3484375 109.69054687 8.171875 109.40234375 C25.93795201 102.9173086 36.9880145 95.20093191 45.0859375 78.15234375 C48.28106647 70.90141513 49.08996711 64.46960723 49.0625 56.625 C49.07861328 55.696875 49.09472656 54.76875 49.11132812 53.8125 C49.11498222 48.71138477 48.9009225 45.46726523 45.75 41.25 C45.46125 40.1775 45.1725 39.105 44.875 38 C40.97755562 25.00851873 32.11155337 16.97706663 20.75 10.25 C14.03406264 6.74603268 8.35968701 4.51829933 0.75 5.25 C0.94916016 6.70019531 0.94916016 6.70019531 1.15234375 8.1796875 C1.32894531 9.48164062 1.50554687 10.78359375 1.6875 12.125 C1.86152344 13.40117188 2.03554687 14.67734375 2.21484375 15.9921875 C2.83524662 20.73375642 3.29600192 25.4900471 3.75 30.25 C19.95339202 34.13069787 19.95339202 34.13069787 36.38671875 36.79296875 C38.75 37.25 38.75 37.25 41.75 39.25 C41.42 40.24 41.09 41.23 40.75 42.25 C37.64875421 43.46378098 34.43658256 43.42944079 31.13671875 43.53125 C30.05326172 43.56863281 28.96980469 43.60601562 27.85351562 43.64453125 C26.72623047 43.67933594 25.59894531 43.71414062 24.4375 43.75 C14.55113146 44.03706854 14.55113146 44.03706854 4.75 45.25 C2.40595568 51.22196354 2.08533973 57.10693978 1.62695312 63.4375 C0.95738 71.08631727 0.95738 71.08631727 -2.25 74.25 C-3.9 73.92 -5.55 73.59 -7.25 73.25 C-9.88085825 66.43368544 -10.98151571 59.82353591 -11.8203125 52.60546875 C-12.14834211 50.04385574 -12.59411658 47.73173021 -13.25 45.25 C-14.71022583 45.17483154 -14.71022583 45.17483154 -16.19995117 45.09814453 C-19.82528753 44.90923495 -23.44992507 44.70898406 -27.07446289 44.50537109 C-28.64070238 44.41896011 -30.20711283 44.33559042 -31.77368164 44.25537109 C-34.03063384 44.13926241 -36.28673691 44.01208549 -38.54296875 43.8828125 C-39.58701118 43.83267502 -39.58701118 43.83267502 -40.65214539 43.78152466 C-44.55580505 43.54569697 -47.71241209 42.93342456 -51.25 41.25 C-50.92 40.26 -50.59 39.27 -50.25 38.25 C-47.94660222 37.43246475 -45.81120064 36.83848084 -43.4375 36.3125 C-42.74060059 36.1484668 -42.04370117 35.98443359 -41.32568359 35.81542969 C-17.23170289 30.25 -17.23170289 30.25 -12.25 30.25 C-12.19465088 29.68079834 -12.13930176 29.11159668 -12.08227539 28.52514648 C-11.82729285 25.91243776 -11.56991322 23.29997032 -11.3125 20.6875 C-11.22548828 19.79224609 -11.13847656 18.89699219 -11.04882812 17.97460938 C-10.56123251 13.04447591 -9.9957681 8.14788241 -9.25 3.25 C-11.56 3.25 -13.87 3.25 -16.25 3.25 C-16.25 2.59 -16.25 1.93 -16.25 1.25 C-10.94279909 -0.31611073 -5.48722191 0.02519964 0 0 Z " fill="#7084DC" transform="translate(103.25,23.75)"/>
<path d="M0 0 C1.09054688 0.49113281 2.18109375 0.98226563 3.3046875 1.48828125 C8.50858322 4.10433181 12.53607441 7.0761912 16.46484375 11.3671875 C18.1151646 13.21248501 18.1151646 13.21248501 20.875 15.1875 C34.46957925 26.26726432 40.26629767 43.28799064 42.38671875 60.05859375 C42.93286523 73.33560289 39.4690575 88.44053659 33 100 C31.8422494 96.52674819 31.93133348 93.63932552 32 90 C32.99 89.67 33.98 89.34 35 89 C34.53742784 68.84681216 34.53742784 68.84681216 33.0625 48.75 C32.98789551 47.96584717 32.91329102 47.18169434 32.83642578 46.3737793 C32.63535238 44.57213692 32.32940265 42.78264962 32 41 C31.34 40.67 30.68 40.34 30 40 C30 37.36 30 34.72 30 32 C29.401875 31.9175 28.80375 31.835 28.1875 31.75 C25.37067727 30.78423221 24.52200868 29.51131433 23 27 C23 26.34 23 25.68 23 25 C22.34 25 21.68 25 21 25 C19.5393715 22.35261084 19 21.10551666 19 18 C17.9171875 17.87625 17.9171875 17.87625 16.8125 17.75 C13.41988342 16.84530224 11.66114778 15.25174043 9 13 C7.68861096 12.29114106 6.36222983 11.60543548 5 11 C5 10.34 5 9.68 5 9 C2.36 8.34 -0.28 7.68 -3 7 C-3 6.34 -3 5.68 -3 5 C-3.66 5 -4.32 5 -5 5 C-5 4.01 -5 3.02 -5 2 C-9.7831068 1.95003585 -14.56605696 1.91401744 -19.34936523 1.89013672 C-20.97178804 1.88016643 -22.59419329 1.86658531 -24.21655273 1.84912109 C-39.35133488 0.72609156 -39.35133488 0.72609156 -52.66113281 5.55053711 C-53.32387207 6.26802124 -53.32387207 6.26802124 -54 7 C-55.97265625 7.37109375 -55.97265625 7.37109375 -58.0625 7.4375 C-60.0115625 7.7159375 -60.0115625 7.7159375 -62 8 C-63.24174796 9.9001177 -63.24174796 9.9001177 -64 12 C-66.375 13.0625 -66.375 13.0625 -69 14 C-69.680625 14.53625 -70.36125 15.0725 -71.0625 15.625 C-73 17 -73 17 -77 17 C-77.268125 17.598125 -77.53625 18.19625 -77.8125 18.8125 C-79 21 -79 21 -80.5 22.4375 C-82.17671327 23.98855773 -82.17671327 23.98855773 -83 26.5 C-84 29 -84 29 -85.46484375 30.3828125 C-87.29081755 32.30635742 -87.80741137 33.84653179 -88.5625 36.375 C-89.57822319 39.65204377 -90.67174017 42.83261118 -92 46 C-92.66 46 -93.32 46 -94 46 C-94.33 47.32 -94.66 48.64 -95 50 C-95.66 49.67 -96.32 49.34 -97 49 C-97.7495111 37.00782241 -90.75722774 27.20793941 -83.25 18.375 C-73.94536113 8.33389357 -63.02963946 -0.25166358 -49.54296875 -3.359375 C-46.98880809 -3.92995161 -46.98880809 -3.92995161 -44.66015625 -5.01464844 C-30.79165416 -10.15169638 -12.97876909 -5.84552916 0 0 Z " fill="#9AA2C8" transform="translate(128,16)"/>
<path d="M0 0 C0.99 0.33 1.98 0.66 3 1 C2.98952637 1.55236328 2.97905273 2.10472656 2.96826172 2.67382812 C2.17163989 28.58612721 2.17163989 28.58612721 12 52 C13.96874154 53.37907016 15.96360717 54.72294009 18 56 C18 56.66 18 57.32 18 58 C18.66 58 19.32 58 20 58 C20.33 59.32 20.66 60.64 21 62 C22.11375 62.2475 23.2275 62.495 24.375 62.75 C28 64 28 64 29.0625 65.875 C29.371875 66.57625 29.68125 67.2775 30 68 C34.58920259 71.69374843 39.43304721 73.36702718 45 75 C45 75.99 45 76.98 45 78 C60.3627532 79.36341391 76.84312815 80.57419298 92 77 C92.99 75.515 92.99 75.515 94 74 C95.9453125 73.48828125 95.9453125 73.48828125 98.125 73.3125 C99.40375 73.209375 100.6825 73.10625 102 73 C102 73.66 102 74.32 102 75 C96.91388017 80.08611983 87.58881657 80.51558646 80.76171875 81.47265625 C77.97361281 82.00503857 75.59336909 82.86156293 73 84 C73 84.33 73 84.66 73 85 C52.36973948 85.99931294 36.75387225 81.59978272 20.92578125 67.734375 C6.08585707 54.20570594 -2.07189531 36.92172263 -3.16796875 16.9375 C-3.20594603 11.22571703 -3.0272241 6.36618144 -1 1 C-0.67 0.67 -0.34 0.34 0 0 Z " fill="#99A7EF" transform="translate(30,66)"/>
<path d="M0 0 C1.32 0.33 2.64 0.66 4 1 C3.06027344 1.76183594 3.06027344 1.76183594 2.1015625 2.5390625 C-4.03368106 7.69028065 -4.03368106 7.69028065 -7 15 C-7.99 15.66 -8.98 16.32 -10 17 C-10.73036085 19.77872474 -10.73036085 19.77872474 -11.0625 22.9375 C-11.55709824 26.8142081 -11.80181714 28.70272571 -14 32 C-15.00007291 37.15324193 -15.18279462 42.20982752 -15.1875 47.4375 C-15.19974609 48.14970703 -15.21199219 48.86191406 -15.22460938 49.59570312 C-15.26019552 62.65581938 -9.32138598 73.97175875 -0.578125 83.51171875 C1.13636561 85.21174826 1.13636561 85.21174826 4 87 C4 87.66 4 88.32 4 89 C4.99 89.37125 4.99 89.37125 6 89.75 C8.36212505 90.73421877 10.59768881 91.78112214 12.875 92.9375 C16.52461505 94.79006125 20.22241571 96.42600655 24 98 C24 98.66 24 99.32 24 100 C24.99 100.495 24.99 100.495 26 101 C22.97455666 103.01696222 22.38932618 103.25811096 19 103.1875 C18.319375 103.18105469 17.63875 103.17460937 16.9375 103.16796875 C15 103 15 103 12 102 C11.67 101.01 11.34 100.02 11 99 C10.278125 98.938125 9.55625 98.87625 8.8125 98.8125 C5.1288673 97.74833944 3.62056344 95.75159161 1 93 C-0.65661761 91.98343919 -2.32111559 90.97934924 -4 90 C-4.33 89.34 -4.66 88.68 -5 88 C-5.99 87.67 -6.98 87.34 -8 87 C-8.625 85.2578125 -8.625 85.2578125 -9 83.125 C-9.72996035 79.71650748 -10.42384393 78.37006358 -13 76 C-14.00484883 73.66875071 -15.00522247 71.33556463 -16 69 C-16.66 68.67 -17.32 68.34 -18 68 C-19.1798145 61.58569203 -19.15066135 55.19265328 -19.125 48.6875 C-19.12886719 47.71876953 -19.13273437 46.75003906 -19.13671875 45.75195312 C-19.11169442 26.99622104 -19.11169442 26.99622104 -15 21 C-14.7525 19.453125 -14.7525 19.453125 -14.5 17.875 C-13.94871784 14.70512756 -13.38660288 14.00474642 -11 12 C-10.34 11.01 -9.68 10.02 -9 9 C-8.34 9 -7.68 9 -7 9 C-7 8.34 -7 7.68 -7 7 C-5.625 5.375 -5.625 5.375 -4 4 C-3.34 4 -2.68 4 -2 4 C-1.34 2.68 -0.68 1.36 0 0 Z " fill="#8B9DEE" transform="translate(61,35)"/>
<path d="M0 0 C0.43570313 0.37511719 0.87140625 0.75023438 1.3203125 1.13671875 C1.91585937 1.64847656 2.51140625 2.16023438 3.125 2.6875 C4.09179688 3.52474609 4.09179688 3.52474609 5.078125 4.37890625 C6.62889203 5.68697194 8.24351028 6.91911629 9.875 8.125 C23.3993833 19.40136248 29.25264468 36.18000789 31.38671875 53.05859375 C31.93286523 66.33560289 28.4690575 81.44053659 22 93 C20.8422494 89.52674819 20.93133348 86.63932552 21 83 C22.485 82.505 22.485 82.505 24 82 C23.53742784 61.84681216 23.53742784 61.84681216 22.0625 41.75 C21.98789551 40.96584717 21.91329102 40.18169434 21.83642578 39.3737793 C21.63535238 37.57213692 21.32940265 35.78264962 21 34 C20.34 33.67 19.68 33.34 19 33 C19 30.36 19 27.72 19 25 C18.401875 24.9175 17.80375 24.835 17.1875 24.75 C14.37067727 23.78423221 13.52200868 22.51131433 12 20 C12 19.34 12 18.68 12 18 C11.34 18 10.68 18 10 18 C8.5393715 15.35261084 8 14.10551666 8 11 C7.4225 10.79375 6.845 10.5875 6.25 10.375 C3.136873 8.4725335 1.79260061 6.13705107 0 3 C0 2.01 0 1.02 0 0 Z " fill="#939DC2" transform="translate(139,23)"/>
<path d="M0 0 C0.66 0 1.32 0 2 0 C2.12394421 4.60805521 2.21449675 9.21513281 2.2746582 13.82446289 C2.29974547 15.39104114 2.33382415 16.95750299 2.37719727 18.52368164 C2.43811226 20.78040309 2.46626499 23.03557294 2.48828125 25.29296875 C2.51408768 25.98899704 2.5398941 26.68502533 2.56648254 27.40214539 C2.56871463 31.30481827 2.16930312 32.80509702 -0.42675781 35.79370117 C-1.27592773 36.52177979 -2.12509766 37.2498584 -3 38 C-4.70052571 40.98438339 -4.70052571 40.98438339 -6.0625 44.125 C-7.92545346 48.26374979 -9.30994593 50.40698904 -13 53 C-13.33 53.99 -13.66 54.98 -14 56 C-18.66867258 60.57757653 -22.51715832 62.23731274 -29 63 C-29.42224854 63.65822754 -29.84449707 64.31645508 -30.27954102 64.99462891 C-32 67 -32 67 -35.03100586 67.48583984 C-36.24667236 67.47762207 -37.46233887 67.4694043 -38.71484375 67.4609375 C-39.36699356 67.46002106 -40.01914337 67.45910461 -40.6910553 67.4581604 C-42.06876919 67.4521257 -43.44647004 67.43638305 -44.82397461 67.41162109 C-46.92676453 67.37518601 -49.02778719 67.37060128 -51.13085938 67.37109375 C-61.40862067 67.29568966 -61.40862067 67.29568966 -66 65 C-59.07 65 -52.14 65 -45 65 C-45 64.34 -45 63.68 -45 63 C-44.20078125 62.72027344 -43.4015625 62.44054687 -42.578125 62.15234375 C-24.81204799 55.6673086 -13.7619855 47.95093191 -5.6640625 30.90234375 C-4.06261029 27.33871178 -2.97346625 23.78078558 -2 20 C-1.34 20 -0.68 20 0 20 C0 13.4 0 6.8 0 0 Z " fill="#7A8FEA" transform="translate(154,71)"/>
<path d="M0 0 C1.27035115 0.43889814 2.54122711 0.87627891 3.8125 1.3125 C10.01408032 3.68058927 15.35003756 6.00313234 18.375 12.1875 C18.65085938 12.86167969 18.92671875 13.53585938 19.2109375 14.23046875 C19.96364929 16.20220424 19.96364929 16.20220424 22 18 C22 19.32 22 20.64 22 22 C22.99 22.33 23.98 22.66 25 23 C26.52521763 26.54223357 26.01825024 30.39410454 25.87890625 34.171875 C25.84348976 35.1955014 25.84348976 35.1955014 25.80735779 36.23980713 C25.7310504 38.41010058 25.64688594 40.58000714 25.5625 42.75 C25.50924627 44.22524176 25.45650611 45.70050216 25.40429688 47.17578125 C25.2754805 50.78408912 25.13961806 54.3920921 25 58 C24.67 58 24.34 58 24 58 C23.98541748 57.39003174 23.97083496 56.78006348 23.95581055 56.15161133 C23.88105225 53.37128936 23.78448518 50.59213176 23.6875 47.8125 C23.66494141 46.85279297 23.64238281 45.89308594 23.61914062 44.90429688 C23.42294075 39.74959118 23.17727453 36.26099608 20 32 C19.71125 30.9275 19.4225 29.855 19.125 28.75 C16.09625452 18.65418174 10.1056144 10.97074505 1.375 5.25 C0.51648438 4.67185547 0.51648438 4.67185547 -0.359375 4.08203125 C-1.90057873 3.04619897 -3.44991019 2.02248668 -5 1 C-5.99 0.34 -6.98 -0.32 -8 -1 C-4.23513365 -2.25495545 -3.55914203 -1.5818409 0 0 Z " fill="#8291D8" transform="translate(129,33)"/>
<path d="M0 0 C2.1875 0.3125 2.1875 0.3125 4 1 C2.56636205 5.49865703 0.06869765 8.50815982 -3.125 11.875 C-3.6207251 12.4023877 -4.1164502 12.92977539 -4.62719727 13.47314453 C-18.02863822 27.5833468 -35.73668715 36.54974217 -55.52734375 37.09765625 C-56.65269531 37.08605469 -57.77804688 37.07445312 -58.9375 37.0625 C-60.08089844 37.05347656 -61.22429687 37.04445312 -62.40234375 37.03515625 C-63.25957031 37.02355469 -64.11679688 37.01195312 -65 37 C-65 36.67 -65 36.34 -65 36 C-62.03 35.505 -62.03 35.505 -59 35 C-59 34.67 -59 34.34 -59 34 C-58.37996094 33.89042969 -57.75992188 33.78085938 -57.12109375 33.66796875 C-51.46819143 32.65587707 -45.82387064 31.60041095 -40.1875 30.5 C-38.96417969 30.2628125 -37.74085937 30.025625 -36.48046875 29.78125 C-33.21780386 29.04888976 -30.14968278 28.11429576 -27 27 C-26.01 26.67 -25.02 26.34 -24 26 C-22.84478498 23.52869082 -22.84478498 23.52869082 -22 21 C-21 20 -21 20 -18.4375 19.9375 C-17.2309375 19.9684375 -17.2309375 19.9684375 -16 20 C-15.73960937 19.4328125 -15.47921875 18.865625 -15.2109375 18.28125 C-13.89131636 15.79525405 -12.36127991 13.71394643 -10.625 11.5 C-9.74714844 10.37078125 -9.74714844 10.37078125 -8.8515625 9.21875 C-7.00939947 7.0112635 -5.05107232 5.01245381 -3 3 C-2.505 2.401875 -2.01 1.80375 -1.5 1.1875 C-1.005 0.795625 -0.51 0.40375 0 0 Z " fill="#95A5EC" transform="translate(156,115)"/>
<path d="M0 0 C2.14593015 0.45787983 4.29173874 0.91632934 6.4375 1.375 C8.36722656 1.78685547 8.36722656 1.78685547 10.3359375 2.20703125 C13.0850905 2.8019972 15.82404401 3.42147566 18.5625 4.0625 C23.3876316 5.1620121 28.27661272 5.78839317 33.1796875 6.4375 C36 7 36 7 39 9 C38.67 9.99 38.34 10.98 38 12 C34.42659993 13.5212568 30.42392728 13.11279336 26.609375 13.09765625 C25.90476135 13.0962413 25.20014771 13.09482635 24.47418213 13.09336853 C22.23274416 13.08778933 19.99140757 13.07524073 17.75 13.0625 C16.22656395 13.05748231 14.70312632 13.05291987 13.1796875 13.04882812 C9.45309228 13.03782674 5.72655604 13.02057646 2 13 C1.67 12.34 1.34 11.68 1 11 C8.92 10.505 8.92 10.505 17 10 C12.38 9.34 7.76 8.68 3 8 C2.67 7.01 2.34 6.02 2 5 C1.01 4.67 0.02 4.34 -1 4 C-0.67 2.68 -0.34 1.36 0 0 Z " fill="#8E99CC" transform="translate(106,54)"/>
<path d="M0 0 C1.88188242 3.76376485 2.27404264 5.077433 2.25 9.0625 C2.25773437 10.34833984 2.25773437 10.34833984 2.265625 11.66015625 C2 14 2 14 0 17 C-2.12890625 17.66015625 -2.12890625 17.66015625 -4.5625 18.0625 C-6.94433029 18.42427653 -6.94433029 18.42427653 -9 19 C-9.33 19.66 -9.66 20.32 -10 21 C-12.54941373 21.31241371 -15.00361513 21.51303421 -17.5625 21.625 C-18.27341797 21.66367187 -18.98433594 21.70234375 -19.71679688 21.7421875 C-21.47742425 21.83671783 -23.23867728 21.91945817 -25 22 C-25 22.66 -25 23.32 -25 24 C-22.69 24 -20.38 24 -18 24 C-18 24.33 -18 24.66 -18 25 C-25.26 25 -32.52 25 -40 25 C-40 23.68 -40 22.36 -40 21 C-31.08955934 18.66038709 -22.16034678 16.55444946 -13.125 14.75 C-12.25133789 14.57500977 -11.37767578 14.40001953 -10.47753906 14.21972656 C-4.27092241 13 -4.27092241 13 -2 13 C-1.34 8.71 -0.68 4.42 0 0 Z " fill="#A9B4E4" transform="translate(93,41)"/>
<path d="M0 0 C1.10730469 -0.020625 2.21460938 -0.04125 3.35546875 -0.0625 C9.89705568 -0.09361337 14.79808713 0.49179647 20.75 3.25 C20.75 3.91 20.75 4.57 20.75 5.25 C23.06 5.91 25.37 6.57 27.75 7.25 C28.245 9.23 28.245 9.23 28.75 11.25 C27.986875 10.940625 27.22375 10.63125 26.4375 10.3125 C23.33658954 9.08655866 20.69522911 8.24290007 17.375 7.8125 C13.75 7.25 13.75 7.25 11.3125 6.1875 C7.69345335 4.86345854 4.59195003 5.11976441 0.75 5.25 C0.42 6.9 0.09 8.55 -0.25 10.25 C0.08 10.25 0.41 10.25 0.75 10.25 C0.75 13.55 0.75 16.85 0.75 20.25 C-0.74403054 17.26193893 -2.04310745 14.35343799 -3.25 11.25 C-4.57 11.58 -5.89 11.91 -7.25 12.25 C-7.91 9.28 -8.57 6.31 -9.25 3.25 C-11.56 3.25 -13.87 3.25 -16.25 3.25 C-16.25 2.59 -16.25 1.93 -16.25 1.25 C-10.94279909 -0.31611073 -5.48722191 0.02519964 0 0 Z " fill="#8E9CDB" transform="translate(103.25,23.75)"/>
<path d="M0 0 C2 3.75 2 3.75 2 6 C3.65 5.34 5.3 4.68 7 4 C7.66 5.98 8.32 7.96 9 10 C9.15149298 6.37114676 9.15149298 6.37114676 8 3 C8.66 2.01 9.32 1.02 10 0 C12.73210065 8.19630195 12.13415675 17.45868676 12 26 C12.99 26.33 13.98 26.66 15 27 C14.01 27.33 13.02 27.66 12 28 C12.66 28.33 13.32 28.66 14 29 C14 29.66 14 30.32 14 31 C13.01 31 12.02 31 11 31 C11 30.34 11 29.68 11 29 C10.34 29 9.68 29 9 29 C7.5192152 26.0384304 7.64685963 23.16493705 7.4375 19.875 C7.31181641 17.95300781 7.31181641 17.95300781 7.18359375 15.9921875 C7.12300781 15.00476562 7.06242187 14.01734375 7 13 C5.35 13 3.7 13 2 13 C2.04640625 13.95261719 2.0928125 14.90523437 2.140625 15.88671875 C2.19476563 17.76810547 2.19476563 17.76810547 2.25 19.6875 C2.29640625 20.92886719 2.3428125 22.17023437 2.390625 23.44921875 C1.93376537 27.6020728 1.01526743 29.15869031 -2 32 C-5.49952409 33.57478584 -9.4730375 33.09747187 -13.25 33.0625 C-14.51328125 33.05347656 -15.7765625 33.04445312 -17.078125 33.03515625 C-18.04234375 33.02355469 -19.0065625 33.01195312 -20 33 C-20 32.67 -20 32.34 -20 32 C-17.03 32 -14.06 32 -11 32 C-10.67 31.01 -10.34 30.02 -10 29 C-7.96875 28.33984375 -7.96875 28.33984375 -5.5 27.9375 C-3.08992981 27.57483048 -3.08992981 27.57483048 -1 27 C0.26237731 24.47524538 0.09856404 22.68799534 0.0625 19.875 C0.05347656 18.96492188 0.04445313 18.05484375 0.03515625 17.1171875 C0.02355469 16.41851562 0.01195313 15.71984375 0 15 C-0.33 16.65 -0.66 18.3 -1 20 C-1.33 20 -1.66 20 -2 20 C-2.26618595 13.04958914 -1.6120509 6.76485645 0 0 Z " fill="#8F9CD4" transform="translate(94,30)"/>
<path d="M0 0 C1.32 0.33 2.64 0.66 4 1 C3.06027344 1.76183594 3.06027344 1.76183594 2.1015625 2.5390625 C-4.03368106 7.69028065 -4.03368106 7.69028065 -7 15 C-7.99 15.66 -8.98 16.32 -10 17 C-10.73036085 19.77872474 -10.73036085 19.77872474 -11.0625 22.9375 C-11.55709824 26.8142081 -11.80181714 28.70272571 -14 32 C-15.29042197 38.43478876 -15.40172729 45.02021007 -15.6875 51.5625 C-15.74744141 52.67302734 -15.80738281 53.78355469 -15.86914062 54.92773438 C-16.21744468 62.64897636 -16.21744468 62.64897636 -14 70 C-15.9375 69.5 -15.9375 69.5 -18 68 C-19.17660463 61.58417474 -19.1506664 55.19393231 -19.125 48.6875 C-19.12886719 47.71876953 -19.13273437 46.75003906 -19.13671875 45.75195312 C-19.11169442 26.99622104 -19.11169442 26.99622104 -15 21 C-14.7525 19.453125 -14.7525 19.453125 -14.5 17.875 C-13.94871784 14.70512756 -13.38660288 14.00474642 -11 12 C-10.34 11.01 -9.68 10.02 -9 9 C-8.34 9 -7.68 9 -7 9 C-7 8.34 -7 7.68 -7 7 C-5.625 5.375 -5.625 5.375 -4 4 C-3.34 4 -2.68 4 -2 4 C-1.34 2.68 -0.68 1.36 0 0 Z " fill="#9EA8DA" transform="translate(61,35)"/>
<path d="M0 0 C0.66 0 1.32 0 2 0 C2.12394421 4.60805521 2.21449675 9.21513281 2.2746582 13.82446289 C2.29974547 15.39104114 2.33382415 16.95750299 2.37719727 18.52368164 C2.43811226 20.78040309 2.46626499 23.03557294 2.48828125 25.29296875 C2.51408768 25.98899704 2.5398941 26.68502533 2.56648254 27.40214539 C2.56873309 31.33709363 2.15298371 32.82273292 -0.45629883 35.84619141 C-1.29572021 36.55694824 -2.1351416 37.26770508 -3 38 C-4.20802273 40.10396004 -4.20802273 40.10396004 -5 42.1875 C-6.71784819 45.86273696 -6.71784819 45.86273696 -9.3125 47.125 C-10.199375 47.41375 -11.08625 47.7025 -12 48 C-14.44667202 49.87578189 -16.72785593 51.91774694 -19 54 C-19.66 53.34 -20.32 52.68 -21 52 C-20.443125 51.5359375 -19.88625 51.071875 -19.3125 50.59375 C-10.26612405 42.40311231 -5.02795806 31.71621962 -2 20 C-1.34 20 -0.68 20 0 20 C0 13.4 0 6.8 0 0 Z " fill="#949ED7" transform="translate(154,71)"/>
<path d="M0 0 C1.05316406 -0.00257812 2.10632813 -0.00515625 3.19140625 -0.0078125 C4.28066406 -0.00007812 5.36992188 0.00765625 6.4921875 0.015625 C7.58917969 0.00789062 8.68617187 0.00015625 9.81640625 -0.0078125 C10.86699219 -0.00523438 11.91757813 -0.00265625 13 0 C13.95793457 0.00225586 14.91586914 0.00451172 15.90283203 0.00683594 C18.3671875 0.265625 18.3671875 0.265625 21.3671875 2.265625 C21.3671875 2.925625 21.3671875 3.585625 21.3671875 4.265625 C20.17222656 4.24242187 18.97726563 4.21921875 17.74609375 4.1953125 C5.91971134 4.02891585 5.91971134 4.02891585 -5.6328125 6.265625 C-6.64214844 6.49507812 -7.65148437 6.72453125 -8.69140625 6.9609375 C-14.58037739 8.12125662 -14.58037739 8.12125662 -19.78515625 10.8828125 C-21.6328125 12.265625 -21.6328125 12.265625 -24.8828125 11.953125 C-25.7903125 11.72625 -26.6978125 11.499375 -27.6328125 11.265625 C-26.6428125 10.935625 -25.6528125 10.605625 -24.6328125 10.265625 C-24.6328125 9.275625 -24.6328125 8.285625 -24.6328125 7.265625 C-21.67418588 5.29320725 -19.65878431 4.62285625 -16.2578125 3.765625 C-13.49410359 3.06518087 -10.91788157 2.39233568 -8.31054688 1.23339844 C-5.36776192 0.16983174 -3.1206738 0.00733167 0 0 Z " fill="#AAB1D0" transform="translate(91.6328125,9.734375)"/>
<path d="M0 0 C0.66 0 1.32 0 2 0 C2.48377991 1.85296835 2.96178636 3.70744441 3.4375 5.5625 C3.83775391 7.11130859 3.83775391 7.11130859 4.24609375 8.69140625 C5.64549018 14.83279888 6.1182104 20.64222504 6.0625 26.9375 C6.05573242 27.96327148 6.05573242 27.96327148 6.04882812 29.00976562 C6.0371956 30.67321604 6.01926694 32.3366205 6 34 C6.66 32.02 7.32 30.04 8 28 C8.33 28 8.66 28 9 28 C8.56959133 38.73869638 5.98767628 48.46641306 1 58 C-0.1577506 54.52674819 -0.06866652 51.63932552 0 48 C1.485 47.505 1.485 47.505 3 47 C2.60199073 31.25112927 2.15365982 15.61926106 0 0 Z " fill="#7E93EC" transform="translate(160,58)"/>
<path d="M0 0 C0.99 0.33 1.98 0.66 3 1 C2.99214478 1.86782104 2.99214478 1.86782104 2.98413086 2.75317383 C2.7932647 17.90793895 2.7932647 17.90793895 4 33 C2.68 33 1.36 33 0 33 C-3.67102152 22.9658745 -4.83483606 11.15103663 -1 1 C-0.67 0.67 -0.34 0.34 0 0 Z " fill="#9DA7D8" transform="translate(30,66)"/>
<path d="M0 0 C2 1 2 1 4 4 C4.625 6.1875 4.625 6.1875 5 8 C5.66 8 6.32 8 7 8 C10.65063225 20.25569399 11.79919679 30.29804933 6 42 C5.67 42 5.34 42 5 42 C5.03480469 40.88625 5.06960937 39.7725 5.10546875 38.625 C5.55005519 21.7755748 5.55005519 21.7755748 0.8984375 5.8046875 C0 4 0 4 0 0 Z " fill="#99A7DD" transform="translate(160,53)"/>
<path d="M0 0 C0.66 0.66 1.32 1.32 2 2 C1.76133372 4.4662182 1.37251811 5.65251671 -0.453125 7.35546875 C-2.2783204 9.29589114 -2.80409466 10.83542555 -3.5625 13.375 C-4.57822319 16.65204377 -5.67174017 19.83261118 -7 23 C-7.66 23 -8.32 23 -9 23 C-9.33 24.32 -9.66 25.64 -10 27 C-10.66 26.67 -11.32 26.34 -12 26 C-12.58688568 16.60982919 -8.5694794 8.44047639 -3 1 C-2.01 0.67 -1.02 0.34 0 0 Z " fill="#A0ABE0" transform="translate(43,39)"/>
<path d="M0 0 C0.99 0 1.98 0 3 0 C3.15855469 0.53367187 3.31710938 1.06734375 3.48046875 1.6171875 C7.46201312 14.33173249 14.13967549 25.93200223 24.84375 34.1953125 C25.5553125 34.79085937 26.266875 35.38640625 27 36 C27 36.99 27 37.98 27 39 C15.17586075 33.99747955 6.10471911 20.24562001 1 9 C0.25820857 5.86404341 0.05404002 3.24240139 0 0 Z " fill="#98A1CA" transform="translate(31,99)"/>
<path d="M0 0 C2.8125 0.125 2.8125 0.125 6 1 C6.99 2.98 7.98 4.96 9 7 C-3.54 6.67 -16.08 6.34 -29 6 C-19.86528515 1.43264257 -7.87515646 -0.0478878 2 3 C2 2.34 2 1.68 2 1 C1.34 0.67 0.68 0.34 0 0 Z " fill="#8F9EE9" transform="translate(111,11)"/>
<path d="M0 0 C0.33 0.99 0.66 1.98 1 3 C1.66 3 2.32 3 3 3 C3.66 2.01 4.32 1.02 5 0 C5 12.87 5 25.74 5 39 C5.66 39 6.32 39 7 39 C7.33 40.98 7.66 42.96 8 45 C8.66 45 9.32 45 10 45 C10.28875 46.134375 10.5775 47.26875 10.875 48.4375 C11.24625 49.613125 11.6175 50.78875 12 52 C12.66 52.33 13.32 52.66 14 53 C14.625 56.0625 14.625 56.0625 15 59 C7.90009452 53.93724906 5.05272548 46.68986706 3.17578125 38.328125 C1.58559483 27.2757655 1.78874191 16.14142654 2 5 C1.01 5 0.02 5 -1 5 C-0.67 3.35 -0.34 1.7 0 0 Z " fill="#8596E5" transform="translate(30,62)"/>
<path d="M0 0 C1.1240625 0.35707031 2.248125 0.71414062 3.40625 1.08203125 C5.90276221 1.97409306 8.17479781 2.92801548 10.5 4.1875 C10.5 4.8475 10.5 5.5075 10.5 6.1875 C11.16 6.5175 11.82 6.8475 12.5 7.1875 C9.47455666 9.20446222 8.88932618 9.44561096 5.5 9.375 C4.819375 9.36855469 4.13875 9.36210937 3.4375 9.35546875 C1.5 9.1875 1.5 9.1875 -1.5 8.1875 C-1.83 7.1975 -2.16 6.2075 -2.5 5.1875 C-3.6446875 5.0946875 -3.6446875 5.0946875 -4.8125 5 C-7.5 4.1875 -7.5 4.1875 -9.3125 1.625 C-9.704375 0.820625 -10.09625 0.01625 -10.5 -0.8125 C-6.59555054 -2.31494746 -3.87994811 -1.25920334 0 0 Z " fill="#8194EE" transform="translate(74.5,128.8125)"/>
<path d="M0 0 C0 0.66 0 1.32 0 2 C-5.08611983 7.08611983 -14.41118343 7.51558646 -21.23828125 8.47265625 C-24.02638719 9.00503857 -26.40663091 9.86156293 -29 11 C-29 11.33 -29 11.66 -29 12 C-42.6332574 12.3690205 -42.6332574 12.3690205 -49 10 C-48.67 9.01 -48.34 8.02 -48 7 C-47.33355469 7.0721875 -46.66710937 7.144375 -45.98046875 7.21875 C-39.29489465 7.89198264 -32.7169852 8.11693011 -26 8 C-26 7.34 -26 6.68 -26 6 C-24.30230469 5.83564453 -24.30230469 5.83564453 -22.5703125 5.66796875 C-21.08846436 5.50852939 -19.60669744 5.34833382 -18.125 5.1875 C-17.00544922 5.08211914 -17.00544922 5.08211914 -15.86328125 4.97460938 C-13.89448223 4.75289777 -11.94363342 4.38420661 -10 4 C-9.34 3.01 -8.68 2.02 -8 1 C-5.1512821 -0.04452989 -3.12305119 0 0 0 Z " fill="#8A9BED" transform="translate(132,139)"/>
<path d="M0 0 C1.65 0 3.3 0 5 0 C2.32721703 3.31385637 -1.20208956 4.5232019 -5.0625 6 C-6.06796875 6.39191528 -6.06796875 6.39191528 -7.09375 6.79174805 C-19.26405411 11.47094966 -29.92298681 13.17698213 -43 13 C-43 12.67 -43 12.34 -43 12 C-41.02 11.67 -39.04 11.34 -37 11 C-37 10.67 -37 10.34 -37 10 C-36.37996094 9.89042969 -35.75992188 9.78085938 -35.12109375 9.66796875 C-29.46819143 8.65587707 -23.82387064 7.60041095 -18.1875 6.5 C-16.96417969 6.2628125 -15.74085937 6.025625 -14.48046875 5.78125 C-11.22248573 5.04994068 -8.1440022 4.1170115 -5 3 C-5 2.67 -5 2.34 -5 2 C-3.35 1.67 -1.7 1.34 0 1 C0 0.67 0 0.34 0 0 Z " fill="#808AB7" transform="translate(134,139)"/>
<path d="M0 0 C1.32 0.33 2.64 0.66 4 1 C3.06027344 1.76183594 3.06027344 1.76183594 2.1015625 2.5390625 C-4.03368106 7.69028065 -4.03368106 7.69028065 -7 15 C-7.99 15.66 -8.98 16.32 -10 17 C-10.80336113 19.87759068 -10.80336113 19.87759068 -11.1875 23.125 C-11.34605469 24.22070312 -11.50460938 25.31640625 -11.66796875 26.4453125 C-11.77753906 27.28835937 -11.88710938 28.13140625 -12 29 C-12.66 29 -13.32 29 -14 29 C-14.33 28.34 -14.66 27.68 -15 27 C-15.66 29.31 -16.32 31.62 -17 34 C-17.33 34 -17.66 34 -18 34 C-18.28482666 28.39840894 -18.12706867 25.75314438 -15 21 C-14.7525 19.453125 -14.7525 19.453125 -14.5 17.875 C-13.94871784 14.70512756 -13.38660288 14.00474642 -11 12 C-10.34 11.01 -9.68 10.02 -9 9 C-8.34 9 -7.68 9 -7 9 C-7 8.34 -7 7.68 -7 7 C-5.625 5.375 -5.625 5.375 -4 4 C-3.34 4 -2.68 4 -2 4 C-1.34 2.68 -0.68 1.36 0 0 Z " fill="#95A4EE" transform="translate(61,35)"/>
<path d="M0 0 C0.495 1.485 0.495 1.485 1 3 C-5.69088654 7.15919974 -10.72888321 7.18278525 -18.4375 7.1875 C-19.48744141 7.19974609 -20.53738281 7.21199219 -21.61914062 7.22460938 C-23.13604492 7.22750977 -23.13604492 7.22750977 -24.68359375 7.23046875 C-26.06889282 7.23663208 -26.06889282 7.23663208 -27.48217773 7.24291992 C-30 7 -30 7 -34 5 C-27.07 5 -20.14 5 -13 5 C-13 4.34 -13 3.68 -13 3 C-4.57142857 -0.42857143 -4.57142857 -0.42857143 0 0 Z " fill="#AAB7F1" transform="translate(122,131)"/>
<path d="M0 0 C0.99 0.33 1.98 0.66 3 1 C3 1.66 3 2.32 3 3 C3.66 3 4.32 3 5 3 C5.33 4.32 5.66 5.64 6 7 C7.11375 7.2475 8.2275 7.495 9.375 7.75 C13 9 13 9 14.0625 10.875 C14.371875 11.57625 14.68125 12.2775 15 13 C16.95309888 14.40113616 18.95708818 15.73339467 21 17 C22.34175973 17.98866506 23.67896002 18.9838154 25 20 C23.68 20 22.36 20 21 20 C21 20.66 21 21.32 21 22 C17.07668566 21.77581061 16.03871912 21.04047908 13.25 18.125 C11 15 11 15 10 12 C8.53454122 10.76250148 7.06592408 9.52803222 5.56640625 8.33203125 C3.35916179 6.45504781 1.66146084 4.36438658 0 2 C0 1.34 0 0.68 0 0 Z " fill="#92A2EA" transform="translate(45,121)"/>
<path d="M0 0 C1.65 0.66 3.3 1.32 5 2 C5.33 4.31 5.66 6.62 6 9 C5.67 7.68 5.34 6.36 5 5 C3.35 5 1.7 5 0 5 C0.04640625 5.95261719 0.0928125 6.90523437 0.140625 7.88671875 C0.19476563 9.76810547 0.19476563 9.76810547 0.25 11.6875 C0.29640625 12.92886719 0.3428125 14.17023437 0.390625 15.44921875 C-0.06623463 19.6020728 -0.98473257 21.15869031 -4 24 C-7.49952409 25.57478584 -11.4730375 25.09747187 -15.25 25.0625 C-16.51328125 25.05347656 -17.7765625 25.04445313 -19.078125 25.03515625 C-20.04234375 25.02355469 -21.0065625 25.01195313 -22 25 C-22 24.67 -22 24.34 -22 24 C-19.03 24 -16.06 24 -13 24 C-12.67 23.01 -12.34 22.02 -12 21 C-9.96875 20.33984375 -9.96875 20.33984375 -7.5 19.9375 C-5.08992981 19.57483048 -5.08992981 19.57483048 -3 19 C-1.54144503 16.08289006 -1.68750029 13.30692468 -1.5 10.0625 C-1.11013767 3.33041302 -1.11013767 3.33041302 0 0 Z " fill="#8295EB" transform="translate(96,38)"/>
<path d="M0 0 C1.175625 0.144375 2.35125 0.28875 3.5625 0.4375 C10.35552324 1.19953786 17.17916837 1.57762966 24 2 C25.1171875 5.71875 25.1171875 5.71875 24.0625 8.25 C23.5365625 9.11625 23.5365625 9.11625 23 10 C22.505 8.02 22.505 8.02 22 6 C11.11 5.34 0.22 4.68 -11 4 C-11 3.67 -11 3.34 -11 3 C-5.555 2.505 -5.555 2.505 0 2 C0 1.34 0 0.68 0 0 Z " fill="#8691C2" transform="translate(68,63)"/>
<path d="M0 0 C-2.46077779 2.5633102 -5.04139282 4.89478133 -7.75 7.1875 C-15.98385168 14.44994221 -21.1516251 19.65298577 -22 31 C-22.66 30.67 -23.32 30.34 -24 30 C-23.34 25.71 -22.68 21.42 -22 17 C-20.68 16.67 -19.36 16.34 -18 16 C-17.93425781 15.10796875 -17.86851563 14.2159375 -17.80078125 13.296875 C-16.80980124 9.21693777 -15.3566719 7.94124407 -12.1875 5.25 C-11.31480469 4.49203125 -10.44210938 3.7340625 -9.54296875 2.953125 C-3.9735007 -1.32450023 -3.9735007 -1.32450023 0 0 Z " fill="#8990B3" transform="translate(72,34)"/>
<path d="M0 0 C0.99 0.495 0.99 0.495 2 1 C2 2.32 2 3.64 2 5 C5.465 4.505 5.465 4.505 9 4 C9.16682272 8.92127034 9.24828052 12.50343896 7 17 C6.01 17 5.02 17 4 17 C0.61504892 11.55464391 0.32626495 6.32278971 0 0 Z " fill="#B5BFF4" transform="translate(94,81)"/>
<path d="M0 0 C1.88188242 3.76376485 2.27404264 5.077433 2.25 9.0625 C2.25515625 9.91972656 2.2603125 10.77695312 2.265625 11.66015625 C2 14 2 14 0 17 C-4.74016613 18.62943211 -10.0459441 18.08657573 -15 18 C-15 17.34 -15 16.68 -15 16 C-10.66579301 13.96834048 -6.71403788 13.47939368 -2 13 C-1.34 8.71 -0.68 4.42 0 0 Z " fill="#A9B7F3" transform="translate(93,41)"/>
<path d="M0 0 C2.64 0 5.28 0 8 0 C8 2.64 8 5.28 8 8 C8.33 8 8.66 8 9 8 C9 11.3 9 14.6 9 18 C7.50596946 15.01193893 6.20689255 12.10343799 5 9 C3.68 9.33 2.36 9.66 1 10 C0.37542727 6.56484998 0 3.50935186 0 0 Z " fill="#B4C0F2" transform="translate(95,26)"/>
<path d="M0 0 C0.43570313 0.37511719 0.87140625 0.75023438 1.3203125 1.13671875 C1.91585937 1.64847656 2.51140625 2.16023438 3.125 2.6875 C3.76566406 3.24179687 4.40632812 3.79609375 5.06640625 4.3671875 C6.68768748 5.73626943 8.36904603 7.03376945 10.0625 8.3125 C13.83064515 11.75995195 16.33983589 15.67015842 19 20 C15.16868513 19.23213731 13.71182904 17.79930739 11 15 C10.01 14.67 9.02 14.34 8 14 C8 13.01 8 12.02 8 11 C7.4225 10.79375 6.845 10.5875 6.25 10.375 C3.136873 8.4725335 1.79260061 6.13705107 0 3 C0 2.01 0 1.02 0 0 Z " fill="#919AC8" transform="translate(139,23)"/>
<path d="M0 0 C0.33 0 0.66 0 1 0 C0.56959133 10.73869638 -2.01232372 20.46641306 -7 30 C-8.1577506 26.52674819 -8.06866652 23.63932552 -8 20 C-7.01 19.67 -6.02 19.34 -5 19 C-4.67 15.7 -4.34 12.4 -4 9 C-3.34 9 -2.68 9 -2 9 C-1.34 6.03 -0.68 3.06 0 0 Z " fill="#848DB8" transform="translate(168,86)"/>
<path d="M0 0 C0.66 0 1.32 0 2 0 C2 10.89 2 21.78 2 33 C0.68 33.66 -0.64 34.32 -2 35 C-1.34 31.7 -0.68 28.4 0 25 C-0.33 25 -0.66 25 -1 25 C-0.67 16.75 -0.34 8.5 0 0 Z " fill="#9AA9EF" transform="translate(154,71)"/>
<path d="M0 0 C0.99 0.33 1.98 0.66 3 1 C4.99961564 1.03920815 7.00049364 1.04443347 9 1 C5.79175867 4.72155995 2.61952308 6.37911471 -2 8 C-4.9375 8.1875 -4.9375 8.1875 -7 8 C-7 8.33 -7 8.66 -7 9 C-8.65 9 -10.3 9 -12 9 C-8.82850793 4.30619174 -6.13123178 2.93631388 -1 1 C-0.67 0.67 -0.34 0.34 0 0 Z " fill="#97A1D7" transform="translate(77,26)"/>
<path d="M0 0 C0 0.33 0 0.66 0 1 C-8.415 1.495 -8.415 1.495 -17 2 C-17 2.66 -17 3.32 -17 4 C-14.69 4 -12.38 4 -10 4 C-10 4.33 -10 4.66 -10 5 C-11.58226965 5.19627391 -13.16589271 5.38165538 -14.75 5.5625 C-15.63171875 5.66691406 -16.5134375 5.77132813 -17.421875 5.87890625 C-21.00291148 6.04710645 -23.62224043 5.12591986 -27 4 C-27.99 4.66 -28.98 5.32 -30 6 C-29.67 4.68 -29.34 3.36 -29 2 C-28.44014404 1.91435791 -27.88028809 1.82871582 -27.3034668 1.74047852 C-24.76438792 1.35051939 -22.22594632 0.95655484 -19.6875 0.5625 C-18.80642578 0.42779297 -17.92535156 0.29308594 -17.01757812 0.15429688 C-16.17001953 0.02216797 -15.32246094 -0.10996094 -14.44921875 -0.24609375 C-13.27879028 -0.42676392 -13.27879028 -0.42676392 -12.0847168 -0.61108398 C-7.13727796 -1.53405741 -4.98889275 -1.60021088 0 0 Z " fill="#7A8BD8" transform="translate(104,23)"/>
<path d="M0 0 C2.71114472 1.02836524 3.82856844 1.70611733 5.3125 4.25 C7.58569972 7.95447362 10.62880595 10.31228091 14 13 C13.67 14.65 13.34 16.3 13 18 C10 16.1875 10 16.1875 7 14 C7 13.01 7 12.02 7 11 C6.38125 10.773125 5.7625 10.54625 5.125 10.3125 C1.78091213 8.24703397 1.36071381 5.33464111 0.375 1.6875 C0.25125 1.130625 0.1275 0.57375 0 0 Z " fill="#979FC3" transform="translate(50,108)"/>
<path d="M0 0 C1 3 1 3 1 5 C0.38511719 5.19335938 -0.22976562 5.38671875 -0.86328125 5.5859375 C-1.67152344 5.84632812 -2.47976562 6.10671875 -3.3125 6.375 C-4.11300781 6.63023438 -4.91351563 6.88546875 -5.73828125 7.1484375 C-8.22724528 7.98831811 -8.22724528 7.98831811 -11 10 C-14.1875 9.625 -14.1875 9.625 -17 9 C-16.01 8.67 -15.02 8.34 -14 8 C-14 7.01 -14 6.02 -14 5 C-10.98509443 2.99006295 -8.7850073 2.27376659 -5.3125 1.375 C-3.82169922 0.98441406 -3.82169922 0.98441406 -2.30078125 0.5859375 C-1.54152344 0.39257812 -0.78226563 0.19921875 0 0 Z " fill="#A4AEDD" transform="translate(81,12)"/>
<path d="M0 0 C0.66 0.33 1.32 0.66 2 1 C-0.63649825 3.69813068 -3.30665167 6.35862857 -6 9 C-6.63164062 9.62777344 -7.26328125 10.25554687 -7.9140625 10.90234375 C-9.55763275 12.44092824 -11.08112579 13.8216622 -13 15 C-15.9375 14.875 -15.9375 14.875 -18 14 C-18 13.34 -18 12.68 -18 12 C-17.34 12 -16.68 12 -16 12 C-15.7215625 11.0409375 -15.7215625 11.0409375 -15.4375 10.0625 C-14.963125 9.381875 -14.48875 8.70125 -14 8 C-12.948125 7.896875 -11.89625 7.79375 -10.8125 7.6875 C-5.57180467 6.74245658 -3.37472492 3.92863114 0 0 Z " fill="#9CA9E0" transform="translate(143,117)"/>
<path d="M0 0 C12.87 0.495 12.87 0.495 26 1 C24 3 24 3 22.1171875 3.23046875 C17.00527496 3.13250527 12.06125121 2.73618199 7 2 C6.67 2.66 6.34 3.32 6 4 C7.32 4.66 8.64 5.32 10 6 C5.53160785 6.21278058 2.17737474 5.59138085 -2 4 C-1.01 3.67 -0.02 3.34 1 3 C0.67 2.01 0.34 1.02 0 0 Z " fill="#8396F0" transform="translate(80,145)"/>
<path d="M0 0 C0 0.33 0 0.66 0 1 C-0.75925781 1.10957031 -1.51851562 1.21914063 -2.30078125 1.33203125 C-3.29464844 1.49058594 -4.28851563 1.64914063 -5.3125 1.8125 C-6.29863281 1.96332031 -7.28476563 2.11414063 -8.30078125 2.26953125 C-11.02696027 2.74074549 -11.02696027 2.74074549 -12.375 4.5625 C-15.05497891 6.93325057 -18.29731856 6.31095199 -21.6875 6.1875 C-22.38939453 6.17396484 -23.09128906 6.16042969 -23.81445312 6.14648438 C-25.54329829 6.11120182 -27.27174765 6.05739583 -29 6 C-24.75 1.53571429 -24.75 1.53571429 -21 1 C-21.33 1.99 -21.66 2.98 -22 4 C-18.75729956 3.62294181 -16.50104504 3.35788931 -13.8125 1.4375 C-9.39276337 -0.8214765 -4.8728584 -0.23041537 0 0 Z " fill="#8294EC" transform="translate(88,17)"/>
<path d="M0 0 C2.49764097 2.42826206 4.85471665 4.81385571 7 7.5625 C8.95159285 10.12646905 8.95159285 10.12646905 11.75 12.125 C12.86375 13.053125 12.86375 13.053125 14 14 C14 14.99 14 15.98 14 17 C7.46564675 14.23546593 2.06661464 8.72498585 -2 3 C-2 2.34 -2 1.68 -2 1 C-1.34 0.67 -0.68 0.34 0 0 Z " fill="#838BB0" transform="translate(44,121)"/>
<path d="M0 0 C-1.52012677 5.40489519 -5.27385218 8.98492628 -9 13 C-10.26937991 9.46675783 -9.7575638 7.66899682 -8.1875 4.3125 C-7.83042969 3.52488281 -7.47335938 2.73726563 -7.10546875 1.92578125 C-5.13045789 -1.51478537 -3.45314512 -1.03594353 0 0 Z " fill="#7F88B0" transform="translate(160,116)"/>
<path d="M0 0 C0.97494292 2.5348516 0.98349653 4.10609377 0.5625 6.8125 C-1.8351213 11.70364745 -6.10645455 15.55322727 -11 18 C-11.66 17.34 -12.32 16.68 -13 16 C-12.39671875 15.43152344 -11.7934375 14.86304687 -11.171875 14.27734375 C-6.53491681 9.79744382 -2.83924382 5.80193303 0 0 Z " fill="#8992B7" transform="translate(146,107)"/>
<path d="M0 0 C2.97 0.495 2.97 0.495 6 1 C6.2475 1.86625 6.495 2.7325 6.75 3.625 C8.06778613 7.18302254 9.80186822 9.9226155 12 13 C8.55243044 11.78869178 6.50594374 10.61489782 4 8 C1.90010348 6.82425289 1.90010348 6.82425289 0 6 C0 4.02 0 2.04 0 0 Z " fill="#96A3E1" transform="translate(133,21)"/>
<path d="M0 0 C2.54320516 0.08759258 5.08316933 0.19453413 7.625 0.3125 C8.33785156 0.33505859 9.05070313 0.35761719 9.78515625 0.38085938 C14.52586948 0.62006968 17.82315355 1.54264397 22 4 C21.67 4.99 21.34 5.98 21 7 C19.68 6.67 18.36 6.34 17 6 C17.99 6 18.98 6 20 6 C20 5.34 20 4.68 20 4 C18.35 4 16.7 4 15 4 C15 4.66 15 5.32 15 6 C14.34 5.67 13.68 5.34 13 5 C13 4.67 13 4.34 13 4 C9.37 4 5.74 4 2 4 C2.99 3.67 3.98 3.34 5 3 C5 2.34 5 1.68 5 1 C3.35 1 1.7 1 0 1 C0 0.67 0 0.34 0 0 Z " fill="#9297B3" transform="translate(123,59)"/>
<path d="M0 0 C-0.99 0.33 -1.98 0.66 -3 1 C-3.433125 1.9590625 -3.433125 1.9590625 -3.875 2.9375 C-5.41235299 5.75598047 -7.01139314 6.00379771 -10 7 C-11.34050052 7.65213539 -12.67661368 8.31379969 -14 9 C-13.01 7.35 -12.02 5.7 -11 4 C-11.66 3.67 -12.32 3.34 -13 3 C-11 0 -11 0 -8.75 -0.75 C-5.65002866 -1.03181558 -3.03692247 -0.63563494 0 0 Z " fill="#8093EB" transform="translate(69,23)"/>
<path d="M0 0 C-0.33 0.66 -0.66 1.32 -1 2 C-3.54941373 2.31241371 -6.00361513 2.51303421 -8.5625 2.625 C-9.62887695 2.68300781 -9.62887695 2.68300781 -10.71679688 2.7421875 C-12.47742425 2.83671783 -14.23867728 2.91945817 -16 3 C-13.69 3.33 -11.38 3.66 -9 4 C-9 4.33 -9 4.66 -9 5 C-11.31 5.33 -13.62 5.66 -16 6 C-16.66 7.98 -17.32 9.96 -18 12 C-18.33 12 -18.66 12 -19 12 C-19 9.69 -19 7.38 -19 5 C-19.66 5 -20.32 5 -21 5 C-21 4.01 -21 3.02 -21 2 C-17.77475599 0.92491866 -15.01239848 0.68167174 -11.625 0.4375 C-9.94277344 0.31181641 -9.94277344 0.31181641 -8.2265625 0.18359375 C-5.47351403 0.02694329 -2.75620842 -0.03613007 0 0 Z " fill="#7F92E9" transform="translate(124,63)"/>
<path d="M0 0 C-0.66 1.32 -1.32 2.64 -2 4 C-1.01 4.33 -0.02 4.66 1 5 C-3.29 5 -7.58 5 -12 5 C-12 3.68 -12 2.36 -12 1 C-7.95858806 0.36605303 -4.0934693 -0.12404452 0 0 Z " fill="#A5ADC9" transform="translate(65,61)"/>
<path d="M0 0 C0.66 0 1.32 0 2 0 C2.680625 1.423125 2.680625 1.423125 3.375 2.875 C4.80238254 6.00313679 4.80238254 6.00313679 7 8 C7.1953125 10.1640625 7.1953125 10.1640625 7.125 12.625 C7.10695312 13.44226563 7.08890625 14.25953125 7.0703125 15.1015625 C7.03550781 16.04128906 7.03550781 16.04128906 7 17 C6.34 17 5.68 17 5 17 C2.31514652 13.3548211 1.44683003 10.1278102 0.8125 5.6875 C0.65394531 4.61886719 0.49539062 3.55023438 0.33203125 2.44921875 C0.22246094 1.64097656 0.11289063 0.83273438 0 0 Z " fill="#929DCC" transform="translate(147,53)"/>
<path d="M0 0 C0.66 0.66 1.32 1.32 2 2 C1.7578125 4.6015625 1.7578125 4.6015625 1.125 7.625 C0.92132813 8.62789062 0.71765625 9.63078125 0.5078125 10.6640625 C0.34023438 11.43492188 0.17265625 12.20578125 0 13 C-0.66 13 -1.32 13 -2 13 C-2.33 12.34 -2.66 11.68 -3 11 C-3.99 14.465 -3.99 14.465 -5 18 C-5.33 18 -5.66 18 -6 18 C-6.52282807 12.03976002 -6.04090579 9.16017475 -2.19140625 4.54296875 C-0.78063213 2.89106895 -0.78063213 2.89106895 0 0 Z " fill="#99A8F0" transform="translate(49,51)"/>
<path d="M0 0 C2.4294516 3.6441774 2.16179575 5.71241272 2 10 C2.66 10 3.32 10 4 10 C4.25 12.25 4.25 12.25 4 15 C2.68 16.32 1.36 17.64 0 19 C0 12.73 0 6.46 0 0 Z " fill="#7D91EA" transform="translate(156,71)"/>
<path d="M0 0 C1.65 0 3.3 0 5 0 C2.26400511 3.44072084 -1.5318568 4.69297619 -5.5 6.25 C-6.17675781 6.53101563 -6.85351562 6.81203125 -7.55078125 7.1015625 C-12.62740061 9.1241998 -12.62740061 9.1241998 -16 8 C-15.34 8 -14.68 8 -14 8 C-14 7.34 -14 6.68 -14 6 C-11.03 5.01 -8.06 4.02 -5 3 C-5 2.67 -5 2.34 -5 2 C-3.35 1.67 -1.7 1.34 0 1 C0 0.67 0 0.34 0 0 Z " fill="#6B7296" transform="translate(134,139)"/>
<path d="M0 0 C0.99 0.33 1.98 0.66 3 1 C3 1.66 3 2.32 3 3 C3.66 3 4.32 3 5 3 C5.33 4.32 5.66 5.64 6 7 C7.11375 7.226875 8.2275 7.45375 9.375 7.6875 C13 9 13 9 14.4375 11.625 C14.623125 12.40875 14.80875 13.1925 15 14 C8.51523797 11.90198876 3.87283947 7.51134848 0 2 C0 1.34 0 0.68 0 0 Z " fill="#8E9EEC" transform="translate(45,121)"/>
<path d="M0 0 C2.375 0.5625 2.375 0.5625 5 2 C6.1875 5.5625 6.1875 5.5625 7 9 C7.66 9.33 8.32 9.66 9 10 C9.625 13.0625 9.625 13.0625 10 16 C4.60109989 12.60640564 2.34844778 7.73620862 0 2 C0 1.34 0 0.68 0 0 Z " fill="#8A9BED" transform="translate(35,105)"/>
<path d="M0 0 C0.33 0 0.66 0 1 0 C1 1.98 1 3.96 1 6 C0.01 6.495 0.01 6.495 -1 7 C-0.979375 8.093125 -0.95875 9.18625 -0.9375 10.3125 C-1 14 -1 14 -2 17 C-2.99 16.67 -3.98 16.34 -5 16 C-4.93999894 14.3739713 -4.8512115 12.74898451 -4.75 11.125 C-4.70359375 10.22007813 -4.6571875 9.31515625 -4.609375 8.3828125 C-4 6 -4 6 -1.953125 4.6796875 C-1.30859375 4.45539063 -0.6640625 4.23109375 0 4 C0 2.68 0 1.36 0 0 Z " fill="#899BEC" transform="translate(162,99)"/>
<path d="M0 0 C0.33 0.66 0.66 1.32 1 2 C0.34 2 -0.32 2 -1 2 C0.25541557 4.51083114 1.50063488 4.87125446 4 6 C3.05125 6.268125 2.1025 6.53625 1.125 6.8125 C-2.25267273 7.74986588 -2.25267273 7.74986588 -4 11 C-7.625 11.1875 -7.625 11.1875 -11 11 C-8.68143083 9.45428722 -6.49361571 8.20381448 -4 7 C-4 6.01 -4 5.02 -4 4 C-4.99 3.67 -5.98 3.34 -7 3 C-4.69 2.01 -2.38 1.02 0 0 Z " fill="#8296ED" transform="translate(126,127)"/>
<path d="M0 0 C2 3.75 2 3.75 2 6 C2.66 6.33 3.32 6.66 4 7 C3.01 9.64 2.02 12.28 1 15 C0.67 15 0.34 15 0 15 C-0.33 16.65 -0.66 18.3 -1 20 C-1.33 20 -1.66 20 -2 20 C-2.26618595 13.04958914 -1.6120509 6.76485645 0 0 Z " fill="#848CB2" transform="translate(94,30)"/>
<path d="M0 0 C0.33 0.99 0.66 1.98 1 3 C-1.72516866 5.98470853 -3.69584189 6.92211278 -7.8125 7.16796875 C-8.864375 7.17441406 -9.91625 7.18085937 -11 7.1875 C-12.051875 7.20167969 -13.10375 7.21585937 -14.1875 7.23046875 C-17 7 -17 7 -20 5 C-18.57107422 4.92652344 -18.57107422 4.92652344 -17.11328125 4.8515625 C-15.85902344 4.77679688 -14.60476562 4.70203125 -13.3125 4.625 C-11.45044922 4.52058594 -11.45044922 4.52058594 -9.55078125 4.4140625 C-6.28279659 4.03297738 -3.91012066 3.50095277 -1 2 C-0.67 1.34 -0.34 0.68 0 0 Z " fill="#7A8DE8" transform="translate(94,58)"/>
<path d="M0 0 C0.66 1.32 1.32 2.64 2 4 C2.99 4 3.98 4 5 4 C5.33 5.98 5.66 7.96 6 10 C5.67 9.01 5.34 8.02 5 7 C5 8.32 5 9.64 5 11 C5 13.33333333 5 15.66666667 5 18 C4.67 18 4.34 18 4 18 C3.90203125 17.43152344 3.8040625 16.86304687 3.703125 16.27734375 C2.63676081 10.77085969 1.01715751 6.7268801 -2 2 C-1.34 2 -0.68 2 0 2 C0 1.34 0 0.68 0 0 Z " fill="#7F88B1" transform="translate(144,46)"/>
<path d="M0 0 C0.33 0 0.66 0 1 0 C1.2475 1.155 1.495 2.31 1.75 3.5 C2.71811109 7.47137543 4.2918277 10.78621027 6.29296875 14.3359375 C6.52628906 14.88507813 6.75960937 15.43421875 7 16 C6.67 16.66 6.34 17.32 6 18 C5.34 18 4.68 18 4 18 C0.17739293 11.54521713 -1.78739314 7.42455611 0 0 Z " fill="#868EAF" transform="translate(45,91)"/>
<path d="M0 0 C4.29 1.65 8.58 3.3 13 5 C9 7 9 7 6 7 C6 6.34 6 5.68 6 5 C4.35 5 2.7 5 1 5 C0.67 3.35 0.34 1.7 0 0 Z " fill="#9499B7" transform="translate(72,128)"/>
<path d="M0 0 C2.91280837 1.30574169 4.80294493 2.7074208 7 5 C7.99 5.66 8.98 6.32 10 7 C10 8.32 10 9.64 10 11 C7.20171644 10.61402985 6.1794116 10.19863427 4.25 8.0625 C3 6 3 6 3 4 C2.34 4 1.68 4 1 4 C0.67 2.68 0.34 1.36 0 0 Z " fill="#8C9EED" transform="translate(148,37)"/>
<path d="M0 0 C1.32 0.33 2.64 0.66 4 1 C3.09373216 2.2989839 2.17450463 3.58893167 1.25 4.875 C0.48429687 5.95394531 0.48429687 5.95394531 -0.296875 7.0546875 C-2.07503547 9.08570565 -3.52701607 9.97855012 -6 11 C-5.55530671 5.96014269 -3.28656638 3.62365012 0 0 Z " fill="#7E92EA" transform="translate(51,33)"/>
<path d="M0 0 C1.65 0 3.3 0 5 0 C5.93065133 2.60582371 6.14917407 3.64198224 5.0625 6.25 C4.711875 6.8275 4.36125 7.405 4 8 C3.67 6.68 3.34 5.36 3 4 C-3.93 3.505 -3.93 3.505 -11 3 C-11 2.67 -11 2.34 -11 2 C-7.37 2 -3.74 2 0 2 C0 1.34 0 0.68 0 0 Z " fill="#707AA6" transform="translate(87,65)"/>
<path d="M0 0 C1.32 0.33 2.64 0.66 4 1 C4 1.66 4 2.32 4 3 C6.31 3.66 8.62 4.32 11 5 C11.33 6.32 11.66 7.64 12 9 C11.236875 8.690625 10.47375 8.38125 9.6875 8.0625 C6.49596467 6.80073022 3.33162074 5.80418432 0 5 C0 4.34 0 3.68 0 3 C0.66 3 1.32 3 2 3 C2 2.34 2 1.68 2 1 C1.34 0.67 0.68 0.34 0 0 Z " fill="#95A5ED" transform="translate(120,26)"/>
<path d="M0 0 C7.03482474 -0.23668569 13.1834265 0.2120463 20 2 C20 2.33 20 2.66 20 3 C6.3667426 3.3690205 6.3667426 3.3690205 0 1 C0 0.67 0 0.34 0 0 Z " fill="#AEBBF0" transform="translate(83,148)"/>
<path d="M0 0 C0.99 0.66 1.98 1.32 3 2 C1.92319498 3.13125022 0.83824365 4.25474919 -0.25 5.375 C-0.85328125 6.00148437 -1.4565625 6.62796875 -2.078125 7.2734375 C-3.9700588 8.97310161 -5.68201309 9.98459866 -8 11 C-8 10.34 -8 9.68 -8 9 C-8.66 8.67 -9.32 8.34 -10 8 C-8.35 8 -6.7 8 -5 8 C-4.9175 7.4225 -4.835 6.845 -4.75 6.25 C-3.79468987 3.3840696 -2.21530827 2.0009236 0 0 Z " fill="#7780A7" transform="translate(147,128)"/>
<path d="M0 0 C3.465 1.98 3.465 1.98 7 4 C6.67 5.65 6.34 7.3 6 9 C3 7.3125 3 7.3125 0 5 C-0.375 2.25 -0.375 2.25 0 0 Z " fill="#A0AAD5" transform="translate(57,117)"/>
<path d="M0 0 C-0.66 0 -1.32 0 -2 0 C-2 0.99 -2 1.98 -2 3 C-2.639375 3.12375 -3.27875 3.2475 -3.9375 3.375 C-4.618125 3.58125 -5.29875 3.7875 -6 4 C-6.33 4.66 -6.66 5.32 -7 6 C-7.66 6 -8.32 6 -9 6 C-8.67 5.01 -8.34 4.02 -8 3 C-10.97 3 -13.94 3 -17 3 C-13.70997805 1.35498903 -11.45096279 0.5173123 -7.9375 -0.1875 C-7.08027344 -0.36667969 -6.22304687 -0.54585937 -5.33984375 -0.73046875 C-3 -1 -3 -1 0 0 Z " fill="#959BB7" transform="translate(72,59)"/>
<path d="M0 0 C0 4.95 0 9.9 0 15 C-2.00293347 11.99559979 -2.49271626 10.29006055 -3.125 6.8125 C-3.29257812 5.91144531 -3.46015625 5.01039062 -3.6328125 4.08203125 C-3.75398438 3.39496094 -3.87515625 2.70789063 -4 2 C-1 0 -1 0 0 0 Z " fill="#8195E8" transform="translate(42,75)"/>
<path d="M0 0 C1.98 0.66 3.96 1.32 6 2 C4.515 4.475 4.515 4.475 3 7 C0.36 6.34 -2.28 5.68 -5 5 C-5 4.34 -5 3.68 -5 3 C-5.66 3 -6.32 3 -7 3 C-6.67 2.34 -6.34 1.68 -6 1 C-3.525 1.99 -3.525 1.99 -1 3 C-0.67 2.01 -0.34 1.02 0 0 Z " fill="#818FD1" transform="translate(130,18)"/>
<path d="M0 0 C0 3.38023517 -0.87455622 5.83468937 -2 9 C-3.98 9.33 -5.96 9.66 -8 10 C-6.02677065 5.43041625 -4.07763771 2.86536704 0 0 Z " fill="#8899EC" transform="translate(152,120)"/>
<path d="M0 0 C0.66 0 1.32 0 2 0 C1.36886854 4.67037279 1.36886854 4.67037279 -0.46875 6.3125 C-2.57282151 8.63127269 -2.71859368 10.62157409 -3.1875 13.6875 C-3.42533203 15.17830078 -3.42533203 15.17830078 -3.66796875 16.69921875 C-3.77753906 17.45847656 -3.88710938 18.21773437 -4 19 C-4.66 18.67 -5.32 18.34 -6 18 C-5.34 13.71 -4.68 9.42 -4 5 C-2.68 4.67 -1.36 4.34 0 4 C0 2.68 0 1.36 0 0 Z " fill="#727894" transform="translate(54,46)"/>
<path d="M0 0 C3.15879869 1.65460884 5.22106154 3.76500967 7.625 6.375 C7.295 7.035 6.965 7.695 6.625 8.375 C2.625 5.70833333 -1.375 3.04166667 -5.375 0.375 C-2.375 -0.625 -2.375 -0.625 0 0 Z " fill="#7982A0" transform="translate(126.375,31.625)"/>
<path d="M0 0 C0.66 0.99 1.32 1.98 2 3 C1 5 0 7 -1 9 C-2.32 8.67 -3.64 8.34 -5 8 C-4.45773019 4.20411134 -2.79872437 2.52788007 0 0 Z " fill="#929CCA" transform="translate(56,24)"/>
<path d="M0 0 C0.9075 0.226875 1.815 0.45375 2.75 0.6875 C2.75 1.3475 2.75 2.0075 2.75 2.6875 C2.09 2.6875 1.43 2.6875 0.75 2.6875 C1.08 3.6775 1.41 4.6675 1.75 5.6875 C-1.22 4.6975 -4.19 3.7075 -7.25 2.6875 C-4.61280971 0.1517401 -3.74095095 -0.35970682 0 0 Z " fill="#8690BF" transform="translate(119.25,26.3125)"/>
<path d="M0 0 C2 1 2 1 2.625 2.5625 C3.16368951 6.06398181 3.05903219 9.45806833 3 13 C2.34 13 1.68 13 1 13 C-0.32229189 10.35541621 -0.09677194 8.32238699 -0.0625 5.375 C-0.05347656 4.37210937 -0.04445313 3.36921875 -0.03515625 2.3359375 C-0.02355469 1.56507812 -0.01195313 0.79421875 0 0 Z " fill="#A9B1D9" transform="translate(29,86)"/>
<path d="M0 0 C0.99 0.495 0.99 0.495 2 1 C2 2.32 2 3.64 2 5 C3.98 5 5.96 5 8 5 C8 5.66 8 6.32 8 7 C6.02 7.66 4.04 8.32 2 9 C-0.29013653 5.5647952 -0.17842973 4.014669 0 0 Z " fill="#A0AFF0" transform="translate(94,81)"/>
<path d="M0 0 C0 0.66 0 1.32 0 2 C-5.82478551 5.03901852 -10.48208608 5.3540919 -17 5 C-17 4.67 -17 4.34 -17 4 C-14.03 4 -11.06 4 -8 4 C-7.67 3.01 -7.34 2.02 -7 1 C-4.52260646 0.09162237 -2.66420516 0 0 0 Z " fill="#91A3EE" transform="translate(91,58)"/>
<path d="M0 0 C0.99 0.99 1.98 1.98 3 3 C2.6875 6.6875 2.6875 6.6875 2 10 C0.35 10.33 -1.3 10.66 -3 11 C-2.01 7.37 -1.02 3.74 0 0 Z " fill="#878FB6" transform="translate(152,91)"/>
<path d="M0 0 C-0.66 1.65 -1.32 3.3 -2 5 C-3.65 4.67 -5.3 4.34 -7 4 C-6.625 2.0625 -6.625 2.0625 -6 0 C-3.50907189 -1.24546405 -2.58919267 -0.7767578 0 0 Z " fill="#8592CA" transform="translate(160,116)"/>
<path d="M0 0 C0.66 0.33 1.32 0.66 2 1 C1.525625 1.598125 1.05125 2.19625 0.5625 2.8125 C-1.68630502 7.40006225 -1.743534 11.95027297 -2 17 C-2.33 17 -2.66 17 -3 17 C-3.08076963 14.54101345 -3.14037143 12.08466258 -3.1875 9.625 C-3.21263672 8.92632812 -3.23777344 8.22765625 -3.26367188 7.5078125 C-3.29296875 5.4765625 -3.29296875 5.4765625 -3 2 C-2.01 1.34 -1.02 0.68 0 0 Z " fill="#7D92EB" transform="translate(45,55)"/>
<path d="M0 0 C0.66 0.165 1.32 0.33 2 0.5 C5.73099794 1.12183299 9.21873378 1.06408926 13 1 C13 1.33 13 1.66 13 2 C7.69276568 3.42705634 3.46108889 4.4002792 -2 3 C-1.34 2.67 -0.68 2.34 0 2 C0 1.34 0 0.68 0 0 Z " fill="#B7C1F3" transform="translate(82,12)"/>
<path d="M0 0 C1.875 0.8125 1.875 0.8125 4 2 C5.051875 2.495 5.051875 2.495 6.125 3 C8 4 8 4 10 6 C4.71201818 5.58525633 1.88309282 4.64775386 -2 1 C-1.34 0.67 -0.68 0.34 0 0 Z " fill="#78809F" transform="translate(68,142)"/>
<path d="M0 0 C0.33 0 0.66 0 1 0 C1 2.64 1 5.28 1 8 C2.32 8.66 3.64 9.32 5 10 C4.67 11.32 4.34 12.64 4 14 C1 12 1 12 0 9 C-0.06740865 7.43881572 -0.08514456 5.8749748 -0.0625 4.3125 C-0.05347656 3.50425781 -0.04445312 2.69601563 -0.03515625 1.86328125 C-0.02355469 1.24839844 -0.01195312 0.63351563 0 0 Z " fill="#7D90EE" transform="translate(42,95)"/>
<path d="M0 0 C0.99 0.33 1.98 0.66 3 1 C5.14255793 0.61067144 5.14255793 0.61067144 7 0 C5.68 1.65 4.36 3.3 3 5 C1.35 4.67 -0.3 4.34 -2 4 C-2 3.34 -2 2.68 -2 2 C-1.34 2 -0.68 2 0 2 C0 1.34 0 0.68 0 0 Z " fill="#A5B4EF" transform="translate(127,127)"/>
<path d="M0 0 C0.33 0.66 0.66 1.32 1 2 C2.66072849 2.68132451 4.327767 3.34742127 6 4 C6.66 4.66 7.32 5.32 8 6 C5.36 6 2.72 6 0 6 C-1 3 -1 3 0 0 Z " fill="#8E96BB" transform="translate(64,122)"/>
<path d="M0 0 C6.75 -0.125 6.75 -0.125 9 1 C9 1.66 9 2.32 9 3 C6.03 3 3.06 3 0 3 C0 2.01 0 1.02 0 0 Z " fill="#B6C2F4" transform="translate(110,57)"/>
<path d="M0 0 C1.5625 1.1875 1.5625 1.1875 3 3 C2.6875 5.375 2.6875 5.375 2 8 C1.9629721 9.6662553 1.95240038 11.33401319 2 13 C1.34 13 0.68 13 0 13 C-0.19397476 11.02145742 -0.38001321 9.0421352 -0.5625 7.0625 C-0.66691406 5.96035156 -0.77132812 4.85820313 -0.87890625 3.72265625 C-0.91886719 2.82417969 -0.95882812 1.92570312 -1 1 C-0.67 0.67 -0.34 0.34 0 0 Z " fill="#8894CF" transform="translate(158,43)"/>
<path d="M0 0 C2.96404505 2.80804268 5.44499019 5.18315774 7 9 C3.85972637 8.66354211 2.94901705 7.94763914 0.6875 5.625 C0.130625 4.75875 -0.42625 3.8925 -1 3 C-0.67 2.01 -0.34 1.02 0 0 Z " fill="#8A92B5" transform="translate(151,34)"/>
<path d="M0 0 C2.97 0.495 2.97 0.495 6 1 C5.67 1.66 5.34 2.32 5 3 C6.32 3.66 7.64 4.32 9 5 C4.53160785 5.21278058 1.17737474 4.59138085 -3 3 C-2.01 2.67 -1.02 2.34 0 2 C0 1.34 0 0.68 0 0 Z " fill="#737BA2" transform="translate(81,146)"/>
<path d="M0 0 C1.125 1.75 1.125 1.75 2 4 C1.1875 6.0625 1.1875 6.0625 0 8 C-0.33 8.99 -0.66 9.98 -1 11 C-1.66 11 -2.32 11 -3 11 C-2.69217504 9.35328588 -2.37860766 7.70764424 -2.0625 6.0625 C-1.88847656 5.14597656 -1.71445313 4.22945313 -1.53515625 3.28515625 C-1 1 -1 1 0 0 Z " fill="#9BAAEF" transform="translate(148,106)"/>
<path d="M0 0 C0.99 0 1.98 0 3 0 C2.979375 1.216875 2.95875 2.43375 2.9375 3.6875 C2.93175884 6.91977322 3.21233685 9.84934741 4 13 C0.25474201 9.25474201 0.31090051 5.01729091 0 0 Z " fill="#868CA7" transform="translate(31,99)"/>
<path d="M0 0 C4 4 4 4 4.390625 6.140625 C4.26041667 8.09375 4.13020833 10.046875 4 12 C3.34 12 2.68 12 2 12 C1.34 8.04 0.68 4.08 0 0 Z " fill="#ACBAF2" transform="translate(91,68)"/>
<path d="M0 0 C-0.99 0 -1.98 0 -3 0 C-3.2475 0.639375 -3.495 1.27875 -3.75 1.9375 C-5 4 -5 4 -7.125 4.75 C-8.053125 4.87375 -8.053125 4.87375 -9 5 C-8.75 3.125 -8.75 3.125 -8 1 C-5.08518252 -1.1107299 -3.34823603 -1.19579858 0 0 Z " fill="#7A8FE8" transform="translate(72,30)"/>
<path d="M0 0 C-2.97 2.475 -2.97 2.475 -6 5 C-6.99 4.34 -7.98 3.68 -9 3 C-7 0 -7 0 -4.5 -0.75 C-2 -1 -2 -1 0 0 Z " fill="#B2BDF2" transform="translate(65,23)"/>
<path d="M0 0 C0.99 0.33 1.98 0.66 3 1 C4.61729417 4.67566856 4.06546005 9.07239675 4 13 C3.67 13 3.34 13 3 13 C2.49242138 11.58603098 1.99425075 10.16868271 1.5 8.75 C1.08234375 7.56664063 1.08234375 7.56664063 0.65625 6.359375 C0 4 0 4 0 0 Z " fill="#7F91EC" transform="translate(93,67)"/>
<path d="M0 0 C1.44977894 2.34112451 2.04314411 3.5796929 1.7578125 6.359375 C1.54898438 7.14828125 1.34015625 7.9371875 1.125 8.75 C0.92132813 9.54921875 0.71765625 10.3484375 0.5078125 11.171875 C0.34023438 11.77515625 0.17265625 12.3784375 0 13 C-0.33 13 -0.66 13 -1 13 C-1.22151549 11.20991533 -1.42682213 9.41781838 -1.625 7.625 C-1.74101563 6.62726563 -1.85703125 5.62953125 -1.9765625 4.6015625 C-1.98429687 3.74304688 -1.99203125 2.88453125 -2 2 C-1.34 1.34 -0.68 0.68 0 0 Z " fill="#969FC2" transform="translate(46,61)"/>
<path d="M0 0 C0.66 0 1.32 0 2 0 C2 1.65 2 3.3 2 5 C-1.57644848 6.2380014 -4.33694766 5.74926071 -8 5 C-8 4.67 -8 4.34 -8 4 C-5.36 3.67 -2.72 3.34 0 3 C0 2.01 0 1.02 0 0 Z " fill="#9BA3BC" transform="translate(91,51)"/>
<path d="M0 0 C0.66 0.33 1.32 0.66 2 1 C1.01 2.98 0.02 4.96 -1 7 C-1.66 7 -2.32 7 -3 7 C-3.33 8.32 -3.66 9.64 -4 11 C-4.33 11 -4.66 11 -5 11 C-5.36995516 6.43721973 -5.36995516 6.43721973 -3.625 4.375 C-2.820625 3.694375 -2.820625 3.694375 -2 3 C-1.34 2.01 -0.68 1.02 0 0 Z " fill="#8498ED" transform="translate(52,44)"/>
<path d="M0 0 C1.10191901 4.40767604 0.58706842 5.8922935 -1 10 C-2.32 9.67 -3.64 9.34 -5 9 C-3.35 6.03 -1.7 3.06 0 0 Z " fill="#868BA6" transform="translate(40,40)"/>
<path d="M0 0 C2.76276177 0.52268466 5.3260876 1.10869587 8 2 C8 2.99 8 3.98 8 5 C4.75791433 4.64950425 3.38472296 4.43778819 1.1875 1.9375 C0.795625 1.298125 0.40375 0.65875 0 0 Z " fill="#8087A9" transform="translate(58,138)"/>
<path d="M0 0 C0.66 0 1.32 0 2 0 C2 0.66 2 1.32 2 2 C2.99 2 3.98 2 5 2 C5.33 1.34 5.66 0.68 6 0 C8.475 0.99 8.475 0.99 11 2 C8.24075815 3.80411967 7.11027897 4.0127245 3.75 3.625 C2.8425 3.41875 1.935 3.2125 1 3 C0.67 2.01 0.34 1.02 0 0 Z " fill="#A8B5F0" transform="translate(76,133)"/>
<path d="M0 0 C1.52519276 0.08937803 3.04681929 0.24537146 4.5625 0.4375 C5.80193359 0.59025391 5.80193359 0.59025391 7.06640625 0.74609375 C7.70449219 0.82988281 8.34257813 0.91367188 9 1 C9 1.33 9 1.66 9 2 C6.69 2.33 4.38 2.66 2 3 C1.34 4.98 0.68 6.96 0 9 C-0.33 9 -0.66 9 -1 9 C-1.09765625 2.84765625 -1.09765625 2.84765625 -1 1 C-0.67 0.67 -0.34 0.34 0 0 Z " fill="#636C8E" transform="translate(106,66)"/>
<path d="M0 0 C-2.39763185 2.39763185 -3.33273498 2.34280586 -6.625 2.625 C-7.44226563 2.69976562 -8.25953125 2.77453125 -9.1015625 2.8515625 C-9.72804688 2.90054688 -10.35453125 2.94953125 -11 3 C-11 2.34 -11 1.68 -11 1 C-7.32589215 -0.17571451 -3.83070817 -0.07366746 0 0 Z " fill="#C8D1F6" transform="translate(89,56)"/>
<path d="M0 0 C3.3 0 6.6 0 10 0 C8.515 1.485 8.515 1.485 7 3 C3.875 2.8125 3.875 2.8125 1 2 C0.67 1.34 0.34 0.68 0 0 Z " fill="#7B90EB" transform="translate(94,139)"/>
<path d="M0 0 C0.66 0 1.32 0 2 0 C2.5345256 1.24420647 3.05208611 2.49570936 3.5625 3.75 C3.85253906 4.44609375 4.14257812 5.1421875 4.44140625 5.859375 C5.07831803 8.30012784 4.80248831 9.6403655 4 12 C3.34 11.67 2.68 11.34 2 11 C1.3671875 8.49609375 1.3671875 8.49609375 0.875 5.4375 C0.70742187 4.42558594 0.53984375 3.41367187 0.3671875 2.37109375 C0.24601563 1.58863281 0.12484375 0.80617187 0 0 Z " fill="#BBC3F3" transform="translate(147,53)"/>
<path d="M0 0 C2 1 4 2 6 3 C6 4.32 6 5.64 6 7 C4.125 6.875 4.125 6.875 2 6 C0.75 2.9375 0.75 2.9375 0 0 Z " fill="#9AA4D7" transform="translate(138,41)"/>
<path d="M0 0 C0.66 0.33 1.32 0.66 2 1 C1.34 2.32 0.68 3.64 0 5 C-2.64 4.67 -5.28 4.34 -8 4 C-6.66666667 3.33333333 -5.33333333 2.66666667 -4 2 C-3.29875 1.608125 -2.5975 1.21625 -1.875 0.8125 C-1.25625 0.544375 -0.6375 0.27625 0 0 Z " fill="#898EAC" transform="translate(117,131)"/>
<path d="M0 0 C0.33 1.32 0.66 2.64 1 4 C-1.375 3.6875 -1.375 3.6875 -4 3 C-4.66 2.01 -5.32 1.02 -6 0 C-3.50907189 -1.24546405 -2.58919267 -0.7767578 0 0 Z " fill="#A8B6F1" transform="translate(72,128)"/>
<path d="M0 0 C1.9375 0.3125 1.9375 0.3125 4 1 C4.33 1.99 4.66 2.98 5 4 C2.125 4.125 2.125 4.125 -1 4 C-1.66 3.34 -2.32 2.68 -3 2 C-2.01 2 -1.02 2 0 2 C0 1.34 0 0.68 0 0 Z " fill="#B0BBF3" transform="translate(114,13)"/>
<path d="M0 0 C0.33 0.66 0.66 1.32 1 2 C0.34 2 -0.32 2 -1 2 C-0.67 2.99 -0.34 3.98 0 5 C-1.32 5.33 -2.64 5.66 -4 6 C-4 5.34 -4 4.68 -4 4 C-4.99 3.67 -5.98 3.34 -7 3 C-4.69 2.01 -2.38 1.02 0 0 Z " fill="#8C95B3" transform="translate(126,127)"/>
<path d="M0 0 C2.9375 0.75 2.9375 0.75 6 2 C6.875 4.125 6.875 4.125 7 6 C2.32307692 4.52307692 2.32307692 4.52307692 0.6875 1.875 C0.460625 1.25625 0.23375 0.6375 0 0 Z " fill="#7F95EC" transform="translate(53,129)"/>
<path d="M0 0 C0.33 0 0.66 0 1 0 C1 2.64 1 5.28 1 8 C0.34 8 -0.32 8 -1 8 C-1.66 6.68 -2.32 5.36 -3 4 C-2.02727325 2.64664105 -1.0260734 1.31337396 0 0 Z " fill="#BAC4F6" transform="translate(48,56)"/>
<path d="M0 0 C2.31 0 4.62 0 7 0 C7 0.66 7 1.32 7 2 C7.66 2.33 8.32 2.66 9 3 C6.75 3.75 6.75 3.75 4 4 C1.6875 2.0625 1.6875 2.0625 0 0 Z " fill="#A3B5EE" transform="translate(123,18)"/>
<path d="M0 0 C0 0.66 0 1.32 0 2 C-2.3125 3.125 -2.3125 3.125 -5 4 C-5.99 3.34 -6.98 2.68 -8 2 C-4.77208445 -0.1519437 -3.71599191 -0.20086443 0 0 Z " fill="#969EBA" transform="translate(75,15)"/>
<path d="M0 0 C1.73662334 3.22515763 2.8905928 6.51329166 4 10 C2.68 9.34 1.36 8.68 0 8 C0 5.36 0 2.72 0 0 Z " fill="#96A7F1" transform="translate(43,95)"/>
<path d="M0 0 C0.66 0 1.32 0 2 0 C2.33 0.66 2.66 1.32 3 2 C3.99 2.33 4.98 2.66 6 3 C5.67 3.99 5.34 4.98 5 6 C4.01 6 3.02 6 2 6 C1.34 4.02 0.68 2.04 0 0 Z " fill="#A0A6C9" transform="translate(96,92)"/>
<path d="M0 0 C-3.22791555 2.1519437 -4.28400809 2.20086443 -8 2 C-8 2.66 -8 3.32 -8 4 C-8.99 4 -9.98 4 -11 4 C-10.67 3.01 -10.34 2.02 -10 1 C-6.59437148 0.22157062 -3.49234244 -0.09978121 0 0 Z " fill="#D4DBF5" transform="translate(65,61)"/>
<path d="M0 0 C2.62187494 1.04874998 3.79371361 1.64931313 5.25 4.125 C5.4975 4.74375 5.745 5.3625 6 6 C4.02 5.34 2.04 4.68 0 4 C0 2.68 0 1.36 0 0 Z " fill="#8698ED" transform="translate(133,23)"/>
<path d="M0 0 C0 0.99 0 1.98 0 3 C-3 5 -3 5 -5.1875 4.625 C-5.785625 4.41875 -6.38375 4.2125 -7 4 C-4.61426621 2.10786631 -2.92824652 0.97608217 0 0 Z " fill="#8E94AD" transform="translate(66,18)"/>
<path d="M0 0 C1.32 0.33 2.64 0.66 4 1 C4.33 2.32 4.66 3.64 5 5 C3.68 5 2.36 5 1 5 C0.67 3.35 0.34 1.7 0 0 Z " fill="#A1AACB" transform="translate(72,128)"/>
<path d="M0 0 C1.65 0 3.3 0 5 0 C5 0.66 5 1.32 5 2 C1.52674819 3.1577506 -1.36067448 3.06866652 -5 3 C-5 2.67 -5 2.34 -5 2 C-3.35 2 -1.7 2 0 2 C0 1.34 0 0.68 0 0 Z " fill="#CED4F5" transform="translate(138,63)"/>
<path d="M0 0 C2.64 0.33 5.28 0.66 8 1 C8 1.66 8 2.32 8 3 C2.25 3.125 2.25 3.125 0 2 C0 1.34 0 0.68 0 0 Z " fill="#BCC5F3" transform="translate(120,59)"/>
<path d="M0 0 C0 3 0 3 -1 6 C-2.65 4.02 -4.3 2.04 -6 0 C-3 -1 -3 -1 0 0 Z " fill="#6C739A" transform="translate(140,40)"/>
</svg>
